# xmcd
#
# Track frame offsets:
#	150
#	18023
#	40479
#	62133
#	81593
#	103334
#	121111
#	141756
#	156857
#	176313
#
# Disc length: 2635 seconds
#
# Revision: 1
# Processed by: cddbd v1.4PL0 Copyright (c) Steve Scherf et al.
# Submitted via: CDmax 1.9
#
DISCID=810a490a
DTITLE=Chris Rea - The Best of
DYEAR=1998
DGENRE=Blues
TTITLE0=Driving home for Christmas
TTITLE1=Looking for the summer
TTITLE2=The blue Cafe
TTITLE3=The road to hell
TTITLE4=Fool if you think its over
TTITLE5=Julia
TTITLE6=Josephine
TTITLE7=I can hear your heartbeat
TTITLE8=I can't dance
TTITLE9=Gone fishing
EXTD=ID3G: 0
EXTT0=
EXTT1=
EXTT2=
EXTT3=
EXTT4=
EXTT5=
EXTT6=
EXTT7=
EXTT8=
EXTT9=
PLAYORDER=
